<svg version="1.0" xmlns="http://www.w3.org/2000/svg"
 width="1024.000000pt" height="596.000000pt" viewBox="0 0 1024.000000 596.000000"
 preserveAspectRatio="xMidYMid meet">

<g transform="translate(0.000000,596.000000) scale(0.100000,-0.100000)"
fill="#000000"  stroke="none">
<path d="M5044 5811 c-62 -28 -112 -86 -132 -152 -19 -65 0 -55 -201 -104
-106 -25 -121 -25 -121 1 0 20 -68 92 -104 111 -45 23 -132 21 -183 -5 -64
-33 -112 -110 -113 -181 -1 -23 -11 -31 -83 -63 -45 -20 -127 -57 -181 -83
l-99 -45 -26 24 c-108 103 -304 60 -368 -81 -25 -54 -27 -82 -11 -177 2 -14
-19 -36 -75 -79 l-78 -60 -22 21 c-31 29 -70 42 -125 42 -154 -1 -247 -152
-176 -285 l25 -49 -79 -79 -80 -80 -48 24 c-67 32 -142 31 -210 -4 -66 -33
-100 -74 -120 -144 -26 -91 0 -170 81 -241 l45 -40 -31 -88 c-77 -224 -68
-204 -102 -204 -45 -1 -108 -32 -140 -69 -27 -33 -50 -98 -43 -122 2 -8 7 -26
10 -41 3 -14 17 -40 31 -56 l25 -30 -17 -98 c-17 -95 -18 -98 -68 -148 -59
-59 -80 -116 -73 -200 8 -98 88 -184 191 -206 51 -11 53 -13 117 -107 36 -53
88 -121 116 -152 51 -56 51 -56 47 -112 -10 -108 51 -196 164 -239 86 -32 167
-16 234 47 l26 24 140 -27 140 -28 1 -43 c1 -101 114 -213 214 -213 30 0 38
-7 96 -93 34 -50 83 -117 108 -148 45 -56 45 -56 33 -100 -26 -96 22 -206 113
-262 90 -55 220 -47 299 20 28 24 35 25 97 20 37 -4 145 -13 240 -22 l173 -15
31 -36 c45 -51 119 -86 192 -89 l61 -4 70 -73 c275 -286 427 -561 449 -812 4
-44 14 -92 22 -108 18 -34 69 -68 102 -68 35 0 84 27 107 58 19 25 20 43 20
242 0 249 5 268 79 290 23 7 61 22 86 35 40 20 64 23 222 27 l177 5 28 -38
c37 -50 94 -85 158 -100 141 -31 285 89 285 239 0 53 0 54 86 149 47 52 119
141 160 196 l75 102 54 2 c94 4 177 60 221 149 24 49 26 62 22 141 l-5 86 82
121 c44 67 103 160 130 209 l49 87 43 0 c60 0 136 40 173 92 74 102 63 216
-31 313 l-39 41 9 116 10 116 55 54 c61 60 82 113 72 187 -12 85 -81 168 -157
186 -22 5 -29 16 -43 66 -21 75 -20 85 4 116 24 31 26 83 4 124 -15 30 -65 59
-101 59 -14 0 -26 23 -53 102 l-34 101 25 16 c78 50 124 130 123 216 -1 96
-61 184 -150 221 -44 18 -138 18 -173 -1 -28 -14 -29 -14 -57 28 -15 23 -61
84 -103 135 -63 80 -73 96 -63 110 53 73 67 174 33 247 -64 140 -257 184 -368
83 l-22 -20 -79 77 -80 77 14 33 c19 47 18 81 -6 129 -51 105 -204 128 -282
43 l-28 -31 -27 26 c-16 14 -53 42 -83 62 l-55 36 0 73 c0 64 -4 80 -30 122
-79 127 -257 153 -370 54 -18 -16 -38 -43 -45 -59 -15 -36 0 -38 -208 23
l-144 42 -17 52 c-28 82 -63 127 -122 157 -65 32 -153 35 -215 7z m-126 -294
c13 -35 60 -90 106 -122 l29 -21 -40 -104 -41 -105 -61 -2 c-40 -1 -76 -9
-106 -24 l-46 -23 -65 65 c-36 35 -83 85 -105 111 l-39 46 25 48 c14 26 25 59
25 75 0 24 4 28 43 34 23 4 83 18 132 30 123 32 129 31 143 -8z m667 -23 l135
-38 1 -30 c1 -17 4 -42 8 -56 7 -23 2 -28 -71 -66 l-79 -42 -25 23 c-28 26
-74 40 -102 31 -15 -5 -31 9 -70 60 l-50 66 24 35 c13 20 24 43 24 51 0 19 31
14 205 -34z m-1362 -116 c10 -18 33 -44 52 -57 39 -26 39 -26 0 -132 -22 -61
-24 -64 -64 -72 -37 -7 -50 -18 -76 -65 -2 -2 -190 25 -232 34 -20 4 -23 11
-23 55 0 27 -6 65 -14 84 l-14 33 131 57 c73 31 148 64 167 75 47 26 53 25 73
-12z m1126 -30 l43 -61 -16 -34 c-9 -19 -16 -45 -16 -58 0 -14 -6 -25 -12 -25
-7 0 -63 -22 -123 -48 l-111 -48 -41 32 c-23 18 -47 34 -52 35 -7 3 6 48 32
112 l42 108 61 3 c41 1 72 9 95 23 19 12 39 21 44 22 6 0 30 -28 54 -61z
m-726 -152 l107 -115 -25 -37 c-14 -20 -25 -43 -25 -50 0 -24 -20 -25 -166 -7
l-147 17 -14 36 c-8 19 -24 45 -35 57 l-21 22 30 83 29 82 44 -2 c25 -1 56 4
70 12 14 8 30 14 35 15 6 1 59 -50 118 -113z m1179 60 l46 -43 -63 -114 c-40
-72 -70 -114 -80 -113 -8 0 -28 1 -43 2 -22 2 -38 15 -70 59 l-42 57 21 23
c15 15 22 35 22 61 0 37 2 40 46 56 25 9 60 25 76 35 17 11 32 20 35 20 3 0
26 -19 52 -43z m461 -16 l86 -55 1 -52 c0 -28 4 -62 8 -75 8 -21 -3 -34 -114
-131 -107 -93 -126 -106 -143 -97 -11 5 -29 10 -40 10 -24 0 -24 0 -46 180 -9
74 -18 142 -21 150 -3 11 11 21 47 33 29 11 66 34 87 57 20 21 40 37 43 37 3
-1 44 -27 92 -57z m-315 -55 c2 -2 12 -68 23 -147 10 -78 21 -154 24 -168 5
-22 1 -27 -30 -39 -53 -19 -88 -71 -89 -134 -1 -29 2 -61 6 -72 5 -17 -10 -32
-93 -93 l-100 -72 -33 26 -34 27 24 86 c13 47 27 96 30 109 3 12 13 22 21 22
27 0 73 31 88 60 21 41 19 94 -6 138 l-21 37 56 97 c31 53 56 100 56 105 0 19
25 32 49 26 14 -3 27 -7 29 -8z m-557 -61 c20 -24 65 -44 98 -44 26 0 36 -8
67 -54 l36 -54 -24 -42 -23 -42 -125 7 c-69 4 -154 10 -189 13 l-65 7 -11 50
c-6 28 -14 56 -18 62 -4 6 18 21 56 37 34 15 85 38 112 51 60 29 69 30 86 9z
m-1368 -100 c94 -15 107 -19 107 -36 0 -22 30 -78 42 -78 15 0 8 -23 -39 -121
l-46 -99 -38 0 c-20 0 -44 -3 -52 -6 -10 -3 -24 11 -42 43 -16 26 -53 86 -82
131 -30 46 -57 90 -60 98 -2 7 10 31 29 54 24 29 38 39 53 35 11 -2 68 -12
128 -21z m-445 -104 c20 -5 43 -10 50 -10 9 0 12 -24 12 -87 0 -49 3 -106 7
-127 7 -46 25 -47 -187 12 l-135 38 -6 49 c-4 28 -10 59 -13 70 -6 16 7 30 69
77 l76 57 45 -34 c24 -19 61 -39 82 -45z m2863 60 c56 -25 99 -25 151 0 l41
20 46 -39 c25 -22 61 -54 78 -73 l33 -34 -17 -54 c-8 -30 -17 -60 -18 -66 -2
-7 -71 -13 -202 -18 -109 -3 -234 -9 -278 -12 l-80 -6 -22 48 c-21 46 -21 49
-3 61 10 7 64 53 121 103 57 49 105 90 105 90 1 0 21 -9 45 -20z m-1916 -38
l140 -17 6 -40 c4 -22 4 -43 1 -47 -4 -3 -68 -31 -142 -61 -74 -30 -184 -78
-243 -106 l-108 -52 -26 25 -25 26 37 87 c51 122 60 133 97 133 23 0 39 9 62
34 17 19 38 35 46 35 8 0 78 -8 155 -17z m-666 -144 l82 -128 -36 -36 -37 -36
-87 22 -88 23 -7 90 c-12 172 -12 170 37 188 23 8 45 13 48 10 3 -3 43 -63 88
-133z m1562 51 l116 -12 17 -37 c11 -25 29 -44 52 -55 20 -9 34 -22 31 -28 -2
-7 -15 -54 -28 -104 l-24 -93 -34 0 c-19 0 -54 -9 -78 -21 l-43 -21 -53 49
c-29 26 -101 92 -158 146 l-105 98 25 51 25 51 70 -7 c39 -3 123 -11 187 -17z
m-627 -139 c25 -12 46 -25 46 -28 0 -4 -10 -54 -22 -111 l-22 -103 -65 6
c-121 12 -138 17 -151 41 -28 53 -105 63 -151 20 l-27 -27 -98 16 c-88 15
-113 26 -114 47 0 7 206 102 355 165 50 21 103 46 119 55 l29 18 28 -38 c15
-21 48 -48 73 -61z m498 -163 c110 -103 116 -111 105 -134 -10 -22 -16 -24
-51 -19 -23 3 -67 8 -99 12 -53 6 -58 9 -74 41 -21 45 -54 66 -105 66 -35 0
-47 -6 -73 -34 -31 -34 -31 -34 -93 -26 -35 5 -62 14 -62 20 0 7 10 55 22 108
15 68 25 96 34 92 24 -9 121 18 154 42 l33 25 46 -42 c25 -23 99 -91 163 -151z
m-1809 107 l167 -47 0 -136 0 -137 -32 -13 c-18 -8 -36 -15 -40 -15 -4 -1 -77
76 -161 169 l-154 170 21 27 c12 15 23 27 26 28 3 0 80 -21 173 -46z m3290 -1
c2 -10 8 -25 11 -34 5 -12 -21 -35 -105 -93 l-111 -78 -28 27 c-29 28 -90 42
-134 31 -41 -10 -85 -54 -96 -97 -14 -51 13 -118 59 -145 17 -10 31 -23 31
-29 0 -5 -19 -54 -42 -107 -32 -73 -47 -96 -58 -92 -8 3 -37 10 -65 15 -27 5
-52 13 -56 17 -4 4 -24 99 -44 212 -20 113 -38 217 -41 231 -5 20 0 29 22 44
36 24 62 54 70 82 7 25 26 27 395 31 170 2 187 0 192 -15z m-3730 -48 c47 -19
114 -19 152 1 l30 16 70 -79 c38 -43 110 -121 160 -173 l91 -95 -21 -42 c-14
-29 -25 -41 -35 -37 -15 6 -150 32 -405 79 -77 14 -150 27 -161 30 -16 3 -23
15 -27 42 -4 21 -17 54 -30 73 l-24 35 81 81 c44 44 82 82 82 82 1 1 18 -5 37
-13z m732 -26 c82 -21 85 -22 85 -51 0 -16 9 -46 19 -67 l20 -38 -57 -55 -57
-56 -47 11 -48 12 0 95 c0 52 -3 112 -6 133 -4 20 -4 37 0 37 4 0 45 -10 91
-21z m2180 -29 c22 -11 51 -20 66 -20 29 0 31 -7 85 -305 13 -77 27 -147 30
-157 3 -12 -5 -19 -31 -28 -20 -7 -51 -25 -69 -40 l-32 -29 -115 101 c-62 55
-133 118 -156 139 l-42 39 15 37 c11 26 14 52 10 84 -6 45 -5 49 26 73 81 63
163 124 168 125 3 1 23 -8 45 -19z m886 3 c8 -9 32 -24 54 -34 l41 -18 -13
-102 c-7 -56 -15 -105 -18 -107 -3 -3 -42 5 -87 17 -248 66 -239 62 -236 83 2
11 49 50 118 97 63 44 118 80 121 80 4 1 13 -6 20 -16z m402 -155 l96 -126
-35 -37 c-18 -20 -34 -40 -34 -45 0 -5 -19 -2 -42 6 -24 8 -95 29 -158 46 -63
16 -117 32 -118 33 -2 2 2 53 9 114 l12 111 41 0 c23 0 59 9 81 19 22 10 43
16 46 12 3 -3 49 -63 102 -133z m-2937 87 c54 -8 100 -19 102 -24 2 -6 12 -21
23 -35 29 -37 99 -37 135 -1 l25 25 97 -16 c53 -8 97 -16 98 -17 1 -1 -9 -51
-22 -112 -13 -60 -24 -122 -24 -137 0 -26 -3 -28 -40 -28 -41 0 -120 -31 -140
-55 -9 -11 -50 21 -204 163 l-193 177 20 38 c10 20 20 37 21 37 2 0 47 -7 102
-15z m664 -102 c0 -8 14 -28 31 -44 25 -23 40 -29 76 -29 37 0 50 5 74 31 l29
31 103 -12 104 -12 10 -38 10 -37 -116 -64 c-64 -35 -167 -92 -229 -126 l-113
-63 -25 30 c-14 16 -55 44 -90 61 -49 23 -64 35 -60 47 3 9 14 67 26 127 12
61 23 115 25 121 5 17 145 -5 145 -23z m-933 -13 c21 0 50 6 65 14 27 14 29
13 170 -116 79 -72 166 -151 194 -175 l51 -44 -21 -44 c-15 -30 -26 -43 -36
-39 -8 3 -62 16 -120 30 -58 13 -192 45 -298 71 l-192 47 1 40 c2 48 -7 84
-28 108 -14 15 -9 22 48 76 63 59 63 59 96 46 18 -8 49 -14 70 -14z m2707 -87
c83 -20 152 -38 154 -39 1 -1 -3 -42 -9 -92 -12 -88 -13 -90 -41 -96 -42 -8
-88 -58 -88 -94 l0 -30 -149 -36 c-82 -20 -153 -36 -158 -36 -5 0 -14 15 -21
33 -7 18 -28 52 -48 75 l-36 42 25 52 c14 29 38 81 52 116 22 48 33 62 49 62
30 0 87 37 93 61 3 10 10 19 15 19 6 0 78 -17 162 -37z m-3655 -53 c86 -16
215 -40 286 -53 124 -21 130 -23 130 -46 0 -20 -16 -33 -98 -76 -54 -29 -103
-57 -109 -63 -8 -8 -21 -3 -45 18 -39 35 -89 40 -133 13 -27 -16 -29 -15 -71
19 -24 19 -72 54 -106 76 -75 51 -78 56 -59 84 9 12 16 30 16 40 0 24 6 23
189 -12z m2379 -22 c23 -13 42 -30 42 -38 0 -25 -53 -305 -59 -312 -4 -4 -81
-1 -171 7 -91 8 -190 15 -220 15 -30 0 -60 4 -66 8 -6 4 -13 28 -16 54 l-5 48
131 69 c72 38 172 92 221 120 50 28 92 51 95 51 3 0 24 -10 48 -22z m1635 -20
l148 -41 -6 -51 c-4 -28 -8 -52 -10 -54 -1 -1 -55 -14 -120 -28 l-117 -24 -25
24 c-14 14 -33 28 -43 31 -16 5 -16 11 -4 88 8 45 14 85 14 90 0 11 4 10 163
-35z m-1293 -103 c58 -54 119 -108 137 -122 29 -22 31 -27 21 -51 -6 -15 -14
-43 -17 -62 -4 -19 -11 -35 -16 -35 -49 1 -414 28 -428 32 -13 3 -16 10 -12
21 4 10 19 82 34 161 l26 145 35 9 c19 5 41 15 49 22 18 18 31 9 171 -120z
m-2856 -28 c53 -36 100 -67 105 -69 5 -2 4 -24 -2 -50 -11 -46 -13 -48 -83
-77 -40 -17 -77 -32 -84 -33 -7 -2 -33 50 -64 127 l-53 130 31 22 c17 12 36
20 42 18 6 -2 54 -32 108 -68z m-164 -114 c27 -67 50 -126 50 -130 0 -5 -28
-19 -62 -32 -35 -13 -91 -38 -126 -54 l-62 -30 -21 27 c-11 14 -34 33 -50 41
l-29 16 19 37 c15 30 75 196 86 237 1 6 34 10 73 10 l71 0 51 -122z m774 108
c10 -11 31 -25 48 -32 l31 -13 -8 -140 c-7 -144 -10 -156 -51 -156 -11 0 -29
-6 -39 -14 -17 -12 -28 -6 -114 63 -53 42 -108 85 -123 96 -24 17 -26 24 -20
55 7 32 16 39 122 96 63 34 120 62 126 63 6 0 19 -8 28 -18z m326 9 c19 -6
150 -37 290 -71 314 -74 292 -67 285 -88 -3 -9 1 -40 8 -69 l14 -51 -31 -11
c-17 -6 -87 -41 -156 -79 l-124 -68 -28 20 c-19 14 -44 21 -77 21 -43 1 -52 4
-61 26 -17 37 -181 312 -198 332 -12 14 -12 20 -2 33 15 18 32 19 80 5z m-37
-182 c46 -79 95 -163 109 -187 l25 -45 -31 -30 c-17 -17 -35 -39 -41 -48 -9
-15 -17 -15 -79 -5 -68 12 -69 13 -83 52 -15 43 -46 82 -74 90 -10 3 -15 13
-13 23 3 9 8 75 12 147 l7 130 30 6 c17 4 35 7 42 8 7 0 50 -63 96 -141z
m3407 109 c0 -7 14 -29 31 -50 17 -20 27 -42 23 -48 -24 -40 -314 -429 -319
-429 -2 0 -16 7 -31 15 -16 8 -42 15 -58 15 l-29 0 7 133 c10 195 11 199 54
222 27 15 41 31 51 61 l14 41 111 25 c133 30 146 32 146 15z m-470 -127 c15
-16 38 -30 50 -30 21 0 22 -3 16 -52 -3 -29 -8 -105 -12 -170 l-7 -116 -32 -6
c-18 -4 -51 -20 -74 -36 -22 -17 -44 -30 -47 -30 -7 0 -182 147 -241 203 -40
39 -41 41 -26 64 9 13 20 47 24 75 5 28 10 52 11 53 3 2 287 72 301 74 5 0 22
-12 37 -29z m615 -5 c22 -8 61 -14 87 -15 l47 0 32 -99 33 -99 -32 -36 c-24
-27 -32 -46 -32 -74 0 -46 32 -100 64 -108 25 -6 36 -40 36 -116 0 -31 -5 -40
-29 -52 -36 -19 -79 -69 -87 -103 -5 -19 -11 -23 -28 -19 -11 3 -97 22 -191
42 -93 20 -173 39 -176 43 -4 3 -9 30 -11 59 l-5 52 72 35 72 34 39 -20 c109
-57 214 44 158 152 -32 63 -126 73 -184 19 -24 -22 -30 -36 -30 -69 l0 -41
-76 -37 c-71 -35 -76 -36 -86 -19 -6 10 -18 26 -28 36 -18 18 -15 23 87 152
58 73 130 170 160 216 30 45 57 82 61 82 4 0 25 -7 47 -15z m-4305 -25 l33
-30 -35 -123 -35 -122 -41 -3 c-31 -2 -42 1 -42 11 0 8 -18 58 -41 112 -22 54
-37 100 -34 103 3 3 40 23 83 43 42 21 78 38 78 38 1 1 16 -13 34 -29z m2183
-4 c87 -8 160 -15 162 -17 2 -2 -8 -60 -22 -129 -14 -69 -27 -135 -29 -146 -3
-17 -13 -23 -45 -27 -23 -3 -70 -20 -104 -37 l-63 -32 -138 135 -138 134 26
31 c15 18 32 47 38 67 l12 35 71 0 c40 -1 143 -7 230 -14z m-1919 -70 c51 -41
102 -80 113 -87 18 -11 21 -21 18 -68 l-4 -55 -154 -46 -154 -46 -36 42 c-20
23 -37 48 -37 56 0 7 15 64 34 127 30 106 35 115 67 131 19 10 40 18 47 19 7
1 55 -32 106 -73z m2321 34 c263 -19 265 -19 265 -41 0 -11 7 -34 16 -51 14
-27 14 -33 2 -42 -8 -6 -89 -66 -180 -134 l-167 -123 -52 40 c-28 21 -72 45
-95 51 -24 7 -44 15 -44 18 0 5 47 245 55 280 5 19 11 22 33 18 15 -3 90 -10
167 -16z m-2810 -67 c9 -21 27 -71 41 -110 l25 -73 -42 -40 -42 -40 -111 36
c-61 20 -115 37 -121 38 -5 2 -10 32 -10 69 l0 66 110 44 c60 25 116 45 122
46 7 0 20 -16 28 -36z m1707 -48 l27 -20 -37 -112 c-20 -61 -40 -114 -44 -118
-3 -4 -60 5 -125 20 -65 14 -134 29 -153 33 -33 7 -35 10 -41 57 -7 60 -15 53
160 144 l135 69 25 -27 c14 -14 38 -35 53 -46z m435 -135 l139 -135 -29 -57
c-26 -49 -32 -56 -51 -49 -16 7 -299 69 -482 106 -22 5 -22 6 16 122 l39 118
68 -3 c51 -2 78 2 108 17 22 11 43 19 46 18 4 -1 69 -63 146 -137z m1085 33
c34 -15 39 -21 34 -43 -3 -14 -13 -82 -22 -151 l-18 -126 -110 -7 c-61 -3
-157 -6 -213 -6 l-103 0 0 25 c0 14 -7 41 -15 61 l-14 35 86 62 c47 34 130 96
185 139 l99 76 26 -24 c14 -13 43 -32 65 -41z m551 -203 c-3 -8 -10 -36 -16
-62 -8 -33 -17 -48 -32 -52 -11 -3 -122 -6 -246 -6 l-226 0 13 78 c7 42 18
109 24 148 l11 70 58 12 c36 8 73 24 96 42 l37 29 143 -122 c95 -81 142 -127
138 -137z m-2734 104 c7 -18 25 -46 41 -61 36 -33 36 -35 -37 -208 -30 -71
-64 -154 -75 -182 l-19 -53 -28 15 c-15 7 -50 17 -78 21 l-50 6 -6 221 c-6
203 -5 222 11 231 9 5 30 23 47 41 l29 31 77 -15 c72 -14 77 -16 88 -47z
m-332 -10 l30 -6 7 -91 c3 -49 6 -152 6 -229 0 -126 -2 -138 -18 -138 -10 0
-41 -11 -69 -25 l-50 -25 -94 97 c-51 54 -125 128 -162 166 -54 52 -67 70 -58
80 6 8 14 38 18 67 l8 53 155 48 c152 46 155 46 175 28 12 -10 35 -21 52 -25z
m-912 6 c33 -11 86 -26 118 -35 56 -15 57 -16 57 -53 1 -51 31 -114 72 -147
l35 -28 -20 -78 c-13 -53 -24 -79 -34 -79 -26 0 -72 -30 -88 -58 l-17 -28 -89
20 -89 21 0 35 c0 19 -4 49 -9 66 -9 31 -8 32 49 58 61 28 85 56 49 56 -11 0
-42 -11 -69 -25 l-50 -25 -32 35 c-17 20 -44 43 -59 51 -32 16 -34 32 -23 131
6 44 10 53 33 61 14 5 37 19 51 30 14 12 32 19 40 16 8 -3 42 -14 75 -24z
m1571 -30 c16 -5 83 -21 148 -35 66 -14 121 -27 123 -29 3 -3 -54 -207 -60
-211 -1 -2 -23 -5 -49 -7 l-48 -6 -82 116 c-46 64 -87 122 -91 129 -7 12 11
53 24 53 3 0 19 -4 35 -10z m-23 -167 c46 -65 86 -124 90 -130 5 -7 -1 -25
-13 -41 -15 -20 -22 -44 -22 -75 0 -53 24 -40 -217 -112 l-124 -37 -33 38
c-18 22 -33 41 -34 44 0 3 38 95 84 205 l83 200 41 6 c23 3 45 8 48 12 4 4 9
7 10 7 2 0 41 -53 87 -117z m575 48 c327 -71 295 -59 296 -111 l1 -45 -50 -7
c-28 -4 -145 -27 -261 -50 l-210 -41 -40 42 -39 42 35 110 c19 60 36 109 37
109 1 0 105 -22 231 -49z m-1490 -240 l152 -159 -26 -56 c-14 -31 -29 -54 -34
-51 -5 3 -80 21 -167 41 -209 46 -193 39 -193 81 0 28 -8 44 -40 75 l-40 40
22 74 c17 61 25 74 42 75 12 0 41 8 66 19 25 10 50 18 56 19 6 1 79 -71 162
-158z m3336 92 c9 -26 13 -50 9 -53 -8 -7 -285 -180 -366 -229 l-37 -23 -40
40 c-25 24 -58 45 -85 53 -25 7 -44 18 -41 24 2 6 11 49 20 96 9 46 19 94 22
106 4 22 6 23 227 26 122 1 234 3 249 5 23 2 28 -4 42 -45z m-559 15 c-2 -13
-11 -63 -20 -112 -8 -49 -16 -90 -17 -91 -2 -1 -28 -10 -59 -19 -40 -11 -66
-26 -86 -49 l-30 -34 -29 24 c-16 14 -55 45 -87 69 -124 93 -122 90 -104 132
9 20 18 48 19 62 3 25 3 25 138 30 293 12 281 13 275 -12z m1177 -48 c79 -17
165 -36 192 -43 l50 -13 3 -51 3 -52 -106 -67 -105 -67 -24 24 c-12 13 -66 70
-119 127 l-96 102 23 35 c12 19 25 35 29 35 4 0 71 -14 150 -30z m-2143 -43
c6 -18 24 -48 39 -67 l28 -33 -40 -62 c-23 -34 -59 -94 -81 -133 l-40 -71 -52
1 c-36 0 -64 -7 -88 -21 -19 -11 -35 -16 -35 -11 0 5 -65 64 -145 132 -94 78
-144 127 -140 136 3 8 8 24 11 36 5 20 17 25 102 40 53 9 165 32 247 51 83 18
158 34 167 34 10 1 21 -11 27 -32z m1634 -58 c4 -3 -20 -76 -53 -163 -33 -86
-60 -163 -60 -171 0 -8 -4 -17 -10 -20 -8 -5 -340 51 -346 58 -1 1 -5 21 -9
43 l-6 41 128 79 c70 43 164 104 208 135 l80 56 30 -26 c17 -14 33 -28 38 -32z
m381 -77 c53 -57 100 -111 106 -122 9 -17 2 -25 -52 -61 -35 -23 -73 -51 -85
-62 -23 -20 -23 -20 -80 -1 -32 10 -60 19 -62 21 -7 5 -29 288 -23 291 4 1 25
11 47 21 22 11 43 19 46 18 4 -1 50 -48 103 -105z m-1441 10 c39 -33 91 -71
115 -87 35 -23 41 -32 35 -49 -3 -12 -9 -37 -12 -56 l-6 -35 -150 -27 c-213
-38 -190 -46 -209 76 -9 58 -16 111 -16 119 0 7 21 23 48 35 26 12 63 35 82
51 19 17 36 30 38 31 1 0 35 -26 75 -58z m1195 43 c2 -2 7 -50 13 -107 5 -56
11 -121 14 -143 5 -37 3 -42 -25 -58 -16 -10 -37 -31 -45 -46 l-14 -29 -78 17
c-54 12 -78 22 -77 32 1 8 30 89 64 181 l64 168 40 -7 c23 -3 42 -7 44 -8z
m-1531 -91 c29 -3 53 -11 54 -18 0 -6 8 -58 18 -116 17 -101 17 -105 -1 -112
-15 -6 -283 -48 -307 -48 -4 0 -20 18 -34 41 l-27 41 80 133 81 133 42 -23
c23 -13 65 -27 94 -31z m-2579 6 c16 0 22 -6 22 -21 0 -12 18 -40 41 -62 l41
-41 -7 -62 -6 -62 -60 -14 -60 -15 -89 120 c-50 65 -90 122 -90 126 0 3 9 20
19 38 l20 31 73 -19 c40 -10 83 -19 96 -19z m4836 -54 l32 -13 -7 -84 c-4 -46
-8 -96 -8 -110 -1 -21 -11 -31 -50 -51 l-49 -26 -68 72 c-38 39 -86 89 -107
112 l-38 41 33 16 c18 9 67 38 108 65 l75 48 23 -28 c14 -16 39 -35 56 -42z
m-3302 39 c10 -13 37 -29 59 -35 l39 -11 0 -114 0 -115 -42 5 c-24 3 -110 12
-193 20 -213 22 -205 19 -205 63 0 21 -4 53 -10 71 -5 19 -8 36 -6 38 2 2 298
93 335 102 2 1 12 -10 23 -24z m346 -98 c64 -56 128 -111 142 -122 23 -17 25
-22 15 -52 -12 -39 -6 -39 -200 -18 -77 8 -146 15 -152 15 -10 0 -13 30 -13
114 l0 115 43 24 c23 14 43 25 45 26 2 1 56 -45 120 -102z m-1503 9 c55 -13
133 -29 173 -36 l72 -13 0 -56 c0 -64 32 -142 74 -180 32 -30 33 -46 4 -65
-48 -29 -108 -35 -242 -23 l-128 12 -19 49 c-24 64 -70 110 -136 138 -46 19
-53 25 -48 43 3 11 8 40 12 64 5 37 11 45 38 57 17 7 37 20 44 28 8 9 22 14
35 11 11 -3 66 -16 121 -29z m4239 -152 l109 -116 -22 -45 c-16 -33 -26 -43
-39 -39 -13 4 -332 76 -336 76 -1 0 -2 26 -4 59 -2 65 -17 49 128 144 30 20
55 36 55 37 0 0 50 -52 109 -116z m-1545 3 c5 -13 20 -36 34 -53 l24 -29 -86
-110 c-47 -61 -97 -126 -111 -144 -25 -33 -26 -33 -56 -18 -16 8 -50 18 -75
22 l-45 7 -23 144 c-13 80 -21 147 -19 148 5 5 291 54 321 55 20 1 30 -5 36
-22z m616 -13 c77 -15 142 -28 144 -30 2 -2 -2 -16 -9 -31 -7 -16 -28 -66 -46
-113 l-32 -85 -48 -7 c-26 -4 -55 -3 -63 2 -9 5 -58 51 -110 103 l-93 95 26
38 c14 21 26 45 26 53 0 10 8 12 33 7 17 -4 95 -18 172 -32z m-2402 -28 c50
-8 128 -17 172 -21 44 -3 101 -8 128 -11 l47 -6 0 -172 0 -172 -46 -22 -46
-23 -96 88 c-135 124 -201 183 -250 221 -23 19 -42 40 -42 48 0 13 31 84 37
84 2 0 45 -6 96 -14z m1407 -122 c28 -165 27 -170 -14 -184 -18 -6 -51 -26
-72 -44 l-40 -34 -132 119 -132 120 15 29 c8 16 15 36 15 44 0 9 13 17 33 21
67 13 302 51 304 50 2 -1 12 -55 23 -121z m1277 90 l69 -15 17 -49 c18 -51 52
-83 99 -95 24 -6 27 -13 38 -93 11 -86 53 -347 66 -409 5 -26 2 -33 -17 -43
-13 -7 -33 -21 -45 -32 -21 -19 -21 -18 -183 140 -156 153 -161 160 -151 186
23 63 6 123 -51 170 l-32 27 31 67 c16 37 38 88 47 115 10 26 23 47 30 47 7 0
44 -7 82 -16z m-2028 -31 l84 -8 13 -36 12 -36 -143 -143 -143 -143 -46 22
-46 21 0 168 c0 93 2 171 5 173 4 5 51 1 264 -18z m1305 -24 c25 -4 60 -2 95
7 l55 15 103 -103 103 -103 -25 -60 -24 -60 -213 -36 c-117 -20 -238 -40 -269
-43 -56 -7 -57 -6 -63 21 -4 15 -20 44 -35 63 l-28 36 109 146 c103 137 112
147 132 136 11 -6 39 -15 60 -19z m-1961 -165 c234 -212 229 -207 217 -239
-17 -44 -11 -97 14 -140 l24 -40 -51 -55 c-29 -30 -64 -70 -79 -87 l-26 -33
-47 21 c-37 17 -63 20 -120 17 l-73 -3 -84 119 -84 119 15 32 c16 32 17 33 71
27 30 -3 57 -10 59 -16 2 -6 19 -26 37 -43 42 -43 98 -46 143 -7 52 44 51 132
-3 169 -46 33 -141 10 -164 -39 -8 -19 -19 -26 -39 -26 -54 0 -73 11 -73 39 0
44 -21 104 -47 140 l-26 33 19 46 c16 37 26 47 59 59 22 7 49 22 60 33 11 11
23 20 28 20 5 0 81 -66 170 -146z m3199 86 c95 -22 176 -40 180 -40 5 0 8 -15
8 -32 0 -18 11 -56 24 -84 l24 -51 -31 -49 c-36 -57 -198 -308 -201 -311 -1
-1 -22 5 -46 13 -24 8 -67 14 -94 13 l-51 -3 -7 49 c-3 28 -21 144 -38 260
-23 155 -28 211 -19 214 6 2 26 16 43 32 17 16 32 29 34 29 1 0 80 -18 174
-40z m-2337 -30 c13 0 15 -23 15 -170 l0 -170 -171 2 -171 3 -15 37 -15 37
143 145 143 145 27 -15 c16 -8 35 -14 44 -14z m265 -102 c107 -99 130 -126
125 -142 -3 -12 -9 -37 -12 -56 -3 -19 -11 -38 -17 -42 -6 -4 -77 -8 -158 -8
l-148 0 0 174 0 173 33 11 c17 5 35 10 39 11 4 1 66 -54 138 -121z m1181 -175
c13 -21 25 -41 27 -45 3 -6 -118 -208 -138 -231 -4 -5 -24 -4 -44 1 -43 12
-92 1 -130 -29 l-25 -20 -31 20 c-16 12 -43 30 -58 40 -16 10 -65 38 -110 60
-73 37 -81 44 -72 61 5 10 10 37 10 59 0 36 3 41 23 41 12 0 126 18 252 39
127 22 240 39 252 40 14 1 28 -11 44 -36z m466 -262 c76 -80 81 -88 68 -107
-7 -11 -19 -39 -26 -63 l-12 -42 -66 7 c-36 3 -153 16 -259 28 l-194 21 -13
39 c-8 21 -20 46 -29 54 -13 13 -11 21 23 71 21 31 55 86 75 124 l38 67 46 0
c28 0 59 8 77 19 l30 18 80 -75 c44 -42 117 -114 162 -161z m-1902 149 c4 -6
3 -76 -1 -155 -7 -144 -7 -145 -31 -145 -13 0 -40 -7 -60 -15 l-37 -16 -125
123 c-69 68 -128 124 -130 126 -3 2 0 11 7 20 7 9 17 29 23 45 l11 27 168 0
c106 0 171 -4 175 -10z m385 -52 l25 -52 -85 -82 c-47 -44 -105 -99 -130 -121
l-44 -41 -41 18 c-22 10 -48 21 -57 24 -16 5 -18 21 -18 149 0 79 3 147 7 150
3 4 76 7 162 7 l156 0 25 -52z m641 -144 l76 -44 -11 -52 c-5 -29 -11 -55 -12
-57 -4 -5 -338 -79 -342 -76 -4 4 -52 217 -52 232 0 6 13 14 29 18 17 3 49 24
73 45 l43 38 60 -30 c33 -17 94 -50 136 -74z m-1322 -34 l123 -130 -21 -29
c-11 -15 -25 -40 -31 -55 -9 -24 -14 -26 -67 -26 -60 0 -258 16 -329 26 -38 5
-41 9 -54 51 -7 26 -25 59 -39 76 l-27 29 36 36 c19 21 55 61 80 89 l45 52 45
-10 c36 -9 52 -8 80 4 19 8 36 16 36 16 1 1 56 -57 123 -129z m872 39 c35 -6
65 -12 67 -14 5 -5 53 -228 49 -230 -1 0 -90 -15 -197 -33 -107 -18 -207 -35
-221 -38 -24 -5 -28 -2 -43 42 -9 26 -23 55 -32 65 -14 16 -6 26 112 142 l128
124 37 -24 c20 -13 64 -28 100 -34z m1086 -184 c131 -14 245 -28 254 -31 11
-3 19 -21 23 -49 4 -24 20 -63 36 -87 24 -35 27 -45 16 -58 -7 -8 -51 -62 -98
-120 -47 -58 -102 -120 -121 -138 l-35 -34 -53 16 c-29 9 -63 16 -76 16 -18 0
-30 14 -58 70 l-35 70 75 35 c70 31 77 33 102 19 35 -18 57 -18 92 0 29 15 51
53 51 87 0 11 -13 34 -29 50 -55 54 -143 28 -157 -47 -6 -31 -14 -39 -76 -70
-39 -19 -71 -34 -73 -32 -1 2 -23 41 -48 88 -25 47 -57 100 -70 119 l-24 35
29 43 c16 24 31 43 33 43 2 0 111 -11 242 -25z m-538 -44 c12 -16 21 -32 21
-36 0 -4 -18 -32 -39 -63 -22 -32 -64 -98 -93 -148 l-53 -90 -35 8 c-19 4 -55
7 -80 5 -43 -2 -45 -1 -48 28 -2 17 -15 76 -29 133 -14 56 -23 106 -19 109 4
5 295 73 348 82 4 0 16 -12 27 -28z m219 -68 c28 -41 117 -212 112 -216 -3 -2
-57 -25 -120 -51 -63 -27 -141 -62 -172 -77 -32 -16 -61 -29 -66 -29 -5 0 -29
20 -54 44 -51 52 -56 34 47 191 40 61 77 121 84 133 11 20 18 23 44 18 18 -3
46 -2 62 3 43 13 42 14 63 -16z m-608 -123 c18 -72 29 -134 26 -138 -4 -4 -28
-23 -54 -42 l-47 -36 -57 40 c-55 38 -58 42 -58 81 0 49 -21 73 -71 81 -66 11
-111 -56 -79 -117 14 -26 68 -52 93 -45 18 4 129 -53 142 -75 3 -4 -2 -23 -10
-43 -8 -19 -15 -47 -15 -61 0 -27 -4 -30 -60 -39 -35 -6 -38 -4 -115 85 -43
50 -111 127 -151 170 l-72 79 19 37 c10 20 19 45 19 55 0 12 13 21 41 28 47
13 364 68 395 69 19 1 25 -12 54 -129z m775 -196 c20 -37 35 -67 33 -68 -72
-31 -107 -57 -133 -98 l-30 -47 -132 0 -133 -1 0 61 0 60 58 26 c44 20 291
129 299 132 0 1 18 -29 38 -65z"/>
<path d="M4762 5394 c-51 -36 -5 -122 50 -93 39 21 49 51 26 81 -20 25 -51 30
-76 12z"/>
<path d="M4054 5219 c-10 -17 13 -36 27 -22 12 12 4 33 -11 33 -5 0 -12 -5
-16 -11z"/>
<path d="M5170 5245 c0 -10 7 -15 18 -13 21 4 19 22 -2 26 -10 2 -16 -3 -16
-13z"/>
<path d="M6133 5084 c-8 -22 18 -37 36 -20 7 8 10 19 7 25 -10 16 -36 13 -43
-5z"/>
<path d="M5407 4708 c-7 -21 12 -48 34 -48 25 0 35 25 19 45 -15 18 -47 20
-53 3z"/>
<path d="M3103 4464 c-15 -23 -15 -29 -2 -52 23 -40 45 -49 77 -32 54 31 33
110 -29 110 -20 0 -34 -8 -46 -26z"/>
<path d="M5880 4380 c-42 -42 -12 -120 48 -120 46 0 72 25 72 70 0 29 -6 43
-22 54 -31 22 -74 20 -98 -4z"/>
<path d="M4970 4206 c0 -9 7 -16 16 -16 17 0 14 22 -4 28 -7 2 -12 -3 -12 -12z"/>
<path d="M4010 4235 c-10 -12 -10 -18 0 -30 7 -8 18 -15 25 -15 7 0 18 7 25
15 10 12 10 18 0 30 -7 8 -18 15 -25 15 -7 0 -18 -7 -25 -15z"/>
<path d="M6526 4074 c-33 -32 -10 -76 39 -76 49 0 72 44 39 76 -8 9 -26 16
-39 16 -13 0 -31 -7 -39 -16z"/>
<path d="M3522 3918 c2 -12 10 -23 18 -23 22 0 19 39 -3 43 -15 3 -18 -1 -15
-20z"/>
<path d="M4106 3874 c-29 -29 -12 -64 31 -64 32 0 46 31 27 58 -18 26 -37 28
-58 6z"/>
<path d="M6632 3728 c-7 -7 -12 -26 -12 -43 0 -39 16 -55 55 -55 59 0 81 53
39 95 -18 18 -65 20 -82 3z"/>
<path d="M7397 3723 c-13 -12 -7 -23 13 -23 11 0 20 7 20 15 0 15 -21 21 -33
8z"/>
<path d="M7370 3275 c0 -9 5 -15 11 -13 6 2 11 8 11 13 0 5 -5 11 -11 13 -6 2
-11 -4 -11 -13z"/>
<path d="M5182 3728 c-30 -30 -2 -72 45 -66 50 6 40 78 -11 78 -12 0 -27 -5
-34 -12z"/>
<path d="M3297 3653 c-3 -5 -2 -15 3 -22 10 -17 43 -6 38 12 -6 15 -34 22 -41
10z"/>
<path d="M4360 3571 c0 -12 6 -21 16 -21 9 0 14 7 12 17 -5 25 -28 28 -28 4z"/>
<path d="M4805 3500 c-10 -17 20 -44 40 -36 9 3 15 14 13 23 -4 21 -43 30 -53
13z"/>
<path d="M5952 3408 c-28 -28 -3 -72 39 -66 30 4 47 33 33 56 -14 21 -55 27
-72 10z"/>
<path d="M6302 3428 c-35 -35 14 -102 57 -79 45 25 33 91 -17 91 -16 0 -33 -5
-40 -12z"/>
<path d="M3776 3334 c-21 -21 -20 -37 4 -59 18 -17 21 -17 45 -1 28 18 30 28
15 57 -13 23 -43 25 -64 3z"/>
<path d="M3393 3353 c-17 -6 -16 -48 1 -62 7 -6 21 -9 30 -5 21 8 21 60 0 68
-9 3 -16 6 -17 5 -1 0 -8 -3 -14 -6z"/>
<path d="M3483 3219 c-16 -16 -5 -39 17 -39 25 0 35 18 20 35 -15 18 -22 19
-37 4z"/>
<path d="M2764 3106 c-8 -22 3 -33 18 -18 9 9 9 15 0 24 -9 9 -13 7 -18 -6z"/>
<path d="M3144 3046 c-9 -24 3 -46 26 -46 17 0 21 5 18 27 -3 31 -34 44 -44
19z"/>
<path d="M6334 3095 c-10 -25 4 -45 30 -45 25 0 44 30 31 50 -10 15 -55 12
-61 -5z"/>
<path d="M5880 3105 c-16 -19 -6 -45 19 -45 25 0 34 26 15 45 -19 18 -19 18
-34 0z"/>
<path d="M7325 3021 c-6 -11 9 -23 19 -14 9 9 7 23 -3 23 -6 0 -12 -4 -16 -9z"/>
<path d="M4870 2971 c-17 -32 -12 -60 14 -76 19 -13 29 -14 45 -5 39 21 48 71
17 92 -22 15 -65 8 -76 -11z"/>
<path d="M6492 2837 c-15 -17 1 -42 23 -33 18 6 17 37 -1 43 -6 2 -16 -2 -22
-10z"/>
<path d="M5623 2844 c-8 -21 13 -42 28 -27 13 13 5 43 -11 43 -6 0 -13 -7 -17
-16z"/>
<path d="M4214 2796 c-9 -24 12 -44 28 -28 10 10 8 16 -5 29 -15 15 -17 15
-23 -1z"/>
<path d="M5654 2555 c-4 -9 -2 -21 4 -27 15 -15 44 -1 40 19 -4 23 -36 29 -44
8z"/>
<path d="M4292 2456 c1 -10 8 -17 13 -17 15 1 12 24 -3 29 -9 3 -13 -2 -10
-12z"/>
<path d="M5302 2498 c2 -12 10 -23 18 -23 22 0 19 39 -3 43 -15 3 -18 -1 -15
-20z"/>
<path d="M6804 2246 c-11 -28 1 -51 25 -51 32 0 49 28 32 49 -17 20 -50 21
-57 2z"/>
<path d="M5954 2385 c-9 -14 -13 -32 -9 -45 15 -47 86 -50 107 -5 27 59 -62
105 -98 50z"/>
<path d="M3887 2373 c-13 -12 -7 -41 10 -47 21 -9 46 16 37 37 -6 17 -35 23
-47 10z"/>
<path d="M4130 1961 c0 -6 5 -13 10 -16 6 -3 10 1 10 9 0 9 -4 16 -10 16 -5 0
-10 -4 -10 -9z"/>
<path d="M4010 1936 c0 -8 5 -18 10 -21 6 -3 10 3 10 14 0 12 -4 21 -10 21 -5
0 -10 -6 -10 -14z"/>
<path d="M7176 2245 c-30 -32 -36 -65 -20 -103 15 -36 41 -52 87 -52 76 0 113
105 54 156 -38 33 -90 32 -121 -1z"/>
<path d="M6054 2045 c-4 -9 -2 -21 4 -27 16 -16 47 -5 47 17 0 26 -42 34 -51
10z"/>
<path d="M6540 1973 c-50 -18 -65 -72 -32 -114 26 -31 78 -31 104 1 42 52 -12
135 -72 113z"/>
<path d="M4777 1947 c-3 -8 -2 -20 3 -27 11 -18 42 -4 38 17 -4 22 -34 29 -41
10z"/>
<path d="M4445 1785 c-20 -19 -24 -31 -19 -48 15 -47 61 -60 94 -27 33 33 20
79 -27 94 -17 5 -29 1 -48 -19z"/>
<path d="M5376 1755 c-21 -22 -20 -48 2 -68 25 -22 45 -21 67 3 41 46 -26 108
-69 65z"/>
<path d="M5853 1484 c-3 -8 -1 -20 5 -26 16 -16 42 -2 42 22 0 24 -38 28 -47
4z"/>
<path d="M6170 1389 c0 -25 33 -22 38 4 2 12 -3 17 -17 17 -15 0 -21 -6 -21
-21z"/>
</g>
</svg>
